<svg width="315" height="39" viewBox="0 0 315 39" fill="none" xmlns="http://www.w3.org/2000/svg">
<g filter="url(#filter0_i_510_405)">
<path d="M10.2117 24.4407L6.75849 15.8351C6.6105 15.4516 6.3885 14.9012 6.09251 14.1841C4.481 10.1315 3.42858 7.97178 2.93526 7.70494C2.70504 7.60487 2.36794 7.47979 1.92395 7.3297C0.641317 6.94612 0 6.26235 0 5.27838C0 3.76074 0.830423 2.62668 2.49127 1.8762C4.15211 1.10904 6.63516 0.725465 9.94041 0.725465C13.1963 0.725465 15.5643 1.05901 17.0442 1.72611C18.5406 2.37652 19.2888 3.41052 19.2888 4.82809C19.2888 5.74535 18.9188 6.42078 18.1789 6.85439C17.4389 7.27133 17.0689 7.57152 17.0689 7.75497C17.0689 7.90507 17.3402 8.66389 17.8829 10.0314L18.0309 10.4067L20.7195 17.111C20.9661 17.7447 21.2128 18.22 21.4594 18.5369C21.7225 18.8538 21.9774 19.0122 22.2241 19.0122C22.5859 19.0122 22.923 18.7954 23.2354 18.3618C23.5643 17.9282 24.1069 16.8275 24.8634 15.0597C25.0607 14.5927 25.3402 13.9339 25.702 13.0834C27.1162 9.81462 27.8233 7.86337 27.8233 7.22963C27.8233 6.97947 27.404 6.63759 26.5653 6.20398C25.7267 5.75369 25.3073 5.16164 25.3073 4.42784C25.3073 3.24375 25.9076 2.33483 27.108 1.70109C28.3248 1.05067 30.0679 0.725465 32.3372 0.725465C35.3793 0.725465 37.4348 0.975625 38.5037 1.47595C39.5725 1.97627 40.107 2.90186 40.107 4.25273C40.107 5.65362 39.4492 6.43746 38.1337 6.60423C37.9199 6.63759 37.7719 6.6626 37.6897 6.67928C36.5551 6.87941 35.2231 8.84734 33.6938 12.5831C33.2498 13.6671 32.8963 14.5343 32.6332 15.1847L28.9826 23.9403L28.2179 25.8165C24.5345 34.6055 21.5088 39 19.1408 39C16.9373 39 14.405 35.306 11.5437 27.9179C10.9682 26.4169 10.5242 25.2579 10.2117 24.4407Z" fill="white"/>
<path d="M38.7099 34.4971C38.7099 33.4131 39.4087 32.4625 40.8065 31.6453C41.3327 31.3284 41.678 31.0783 41.8425 30.8948C42.2371 30.4945 42.5084 29.3855 42.6564 27.5677C42.8209 25.7498 42.9031 22.7479 42.9031 18.5619V11.6325C42.9031 10.1982 42.8044 9.19756 42.6071 8.63053C42.4262 8.04682 42.0727 7.57986 41.5465 7.22963C41.3985 7.12957 41.1847 6.99615 40.9052 6.82938C39.8199 6.16228 39.2772 5.37845 39.2772 4.47787C39.2772 3.19371 40.1076 2.2431 41.7685 1.62604C43.4458 0.992303 45.9781 0.675433 49.3656 0.675433C52.7037 0.675433 55.1457 0.975625 56.6914 1.57601C58.2536 2.15972 59.0347 3.08531 59.0347 4.35279C59.0347 5.33675 58.4427 6.1873 57.2587 6.90443C56.8312 7.17126 56.5434 7.37973 56.3954 7.52983C56.0172 7.91341 55.7541 9.38935 55.6061 11.9577C55.4581 14.526 55.3841 19.204 55.3841 25.9917C55.3841 28.0763 55.4663 29.4272 55.6308 30.0443C55.7952 30.6613 56.0994 31.1533 56.5434 31.5202C56.7079 31.6536 56.9463 31.8287 57.2587 32.0455C58.3605 32.8461 58.9114 33.6966 58.9114 34.5972C58.9114 35.8647 58.0809 36.8069 56.4201 37.424C54.7592 38.0244 52.2104 38.3246 48.7736 38.3246C45.5835 38.3246 43.1087 37.991 41.3491 37.3239C39.5896 36.6568 38.7099 35.7146 38.7099 34.4971Z" fill="white"/>
<path d="M72.7085 22.1392H80.7497C79.763 19.721 78.9162 17.8948 78.2091 16.6607C77.502 15.4266 76.9511 14.8095 76.5564 14.8095C76.1947 14.8095 75.7425 15.3182 75.1998 16.3355C74.6736 17.3361 73.8432 19.2707 72.7085 22.1392ZM57.0456 35.0975C57.0456 33.8967 57.8349 33.0295 59.4136 32.4958C59.6767 32.4124 59.8904 32.3374 60.0549 32.2707C61.1566 31.8371 62.727 29.1854 64.7661 24.3156C65.4238 22.7312 65.9501 21.4804 66.3447 20.5632C66.7065 19.7293 67.2162 18.5452 67.874 17.0109C70.8668 10.1065 72.5441 5.52854 72.9059 3.2771C73.1361 1.99294 73.5554 1.12572 74.1638 0.675433C74.7887 0.225144 75.8165 0 77.2471 0C78.8586 0 80.1741 0.216806 81.1937 0.650417C82.2296 1.08403 83.1752 1.80949 84.0303 2.82681C84.984 3.96087 86.094 5.7787 87.3602 8.28031C88.6428 10.7652 90.4105 14.601 92.6634 19.7877C93.2389 21.0885 93.9624 22.8313 94.834 25.016C96.4126 28.9185 97.5719 31.1533 98.3119 31.7203C98.4434 31.8037 98.7148 31.9205 99.1259 32.0706C100.639 32.6209 101.395 33.4298 101.395 34.4971C101.395 35.848 100.556 36.8319 98.8792 37.449C97.2184 38.0661 94.538 38.3746 90.8381 38.3746C86.6613 38.3746 83.7589 38.1244 82.131 37.6241C80.503 37.1238 79.689 36.2649 79.689 35.0475C79.689 34.5138 79.8206 34.0468 80.0837 33.6466C80.3632 33.2463 80.7497 32.9461 81.243 32.746C81.9501 32.4625 82.4023 32.2123 82.5996 31.9955C82.8134 31.7787 82.9203 31.5035 82.9203 31.17C82.9203 30.4195 82.3201 29.8858 81.1197 29.569C79.9193 29.2354 77.9377 29.0686 75.1751 29.0686C72.9716 29.0686 71.467 29.2271 70.6613 29.5439C69.872 29.8608 69.4773 30.4195 69.4773 31.22C69.4773 31.6536 69.5924 31.9872 69.8226 32.2207C70.0528 32.4375 70.5297 32.6292 71.2533 32.796C71.7466 32.8961 72.133 33.1462 72.4126 33.5465C72.7085 33.9301 72.8565 34.4137 72.8565 34.9974C72.8565 36.1815 72.1988 37.0487 70.8833 37.5991C69.5677 38.1495 67.5205 38.4246 64.7414 38.4246C62.1762 38.4246 60.2522 38.1495 58.9696 37.5991C57.6869 37.0487 57.0456 36.2149 57.0456 35.0975Z" fill="white"/>
<path d="M131.209 16.3105C131.489 16.3938 131.744 16.4606 131.974 16.5106C132.221 16.5439 132.451 16.5606 132.665 16.5606C133.964 16.5606 134.901 16.152 135.477 15.3348C136.052 14.501 136.34 13.1001 136.34 11.1321C136.34 9.63117 136.052 8.52213 135.477 7.805C134.901 7.08788 134.013 6.72931 132.813 6.72931C132.089 6.72931 131.621 6.9628 131.407 7.42976C131.193 7.88005 131.086 9.11417 131.086 11.1321V13.1334C131.086 13.5504 131.094 14.0006 131.111 14.4843C131.127 14.9679 131.16 15.5767 131.209 16.3105ZM131.382 22.7146C131.382 22.9647 131.374 23.4901 131.357 24.2906C131.341 25.0744 131.333 25.7415 131.333 26.2919V27.8178C131.333 29.4522 131.407 30.5196 131.555 31.0199C131.703 31.5202 131.982 31.9121 132.393 32.1956C132.509 32.2623 132.673 32.3541 132.887 32.4708C134.104 33.2213 134.712 34.0969 134.712 35.0975C134.712 36.3316 134.005 37.2072 132.591 37.7242C131.193 38.2245 128.702 38.4747 125.117 38.4747C121.483 38.4747 118.893 38.1995 117.347 37.6491C115.801 37.0988 115.029 36.1982 115.029 34.9474C115.029 33.9301 115.719 33.0629 117.1 32.3457C117.314 32.229 117.487 32.1373 117.618 32.0706C118.013 31.8538 118.334 30.5863 118.58 28.2681C118.844 25.95 118.975 22.8813 118.975 19.0622C118.975 14.3092 118.909 11.1988 118.778 9.73124C118.646 8.26363 118.424 7.36305 118.112 7.02951C117.931 6.86273 117.577 6.64593 117.051 6.37909C115.703 5.69532 115.029 4.85311 115.029 3.85247C115.029 2.86851 115.588 2.12636 116.706 1.62604C117.824 1.12572 119.485 0.875561 121.688 0.875561C122.05 0.875561 122.79 0.8839 123.908 0.900577C125.043 0.917255 125.988 0.925593 126.745 0.925593C128.192 0.925593 130.009 0.892239 132.196 0.825529C134.4 0.75882 135.88 0.725465 136.636 0.725465C140.961 0.725465 144.274 1.55933 146.576 3.22707C148.879 4.87813 150.03 7.25465 150.03 10.3566C150.03 11.8242 149.734 13.1334 149.142 14.2842C148.566 15.4349 147.711 16.4022 146.576 17.186C146.33 17.3528 145.96 17.5613 145.466 17.8114C144.71 18.195 144.332 18.5452 144.332 18.8621C144.332 19.2457 144.825 19.5959 145.812 19.9128C146.535 20.1462 147.103 20.3631 147.514 20.5632C148.484 21.0468 149.331 21.889 150.054 23.0898C150.794 24.2739 151.304 25.6414 151.584 27.1924C151.666 27.6094 151.756 28.1764 151.855 28.8935C152.134 30.7947 152.513 31.8538 152.99 32.0706C153.154 32.1373 153.36 32.2207 153.606 32.3207C155.103 32.9044 155.851 33.6632 155.851 34.5972C155.851 35.848 155.078 36.857 153.532 37.6241C152.003 38.3746 149.964 38.7498 147.415 38.7498C144.422 38.7498 142.211 38.1661 140.78 36.9987C139.349 35.8313 138.206 33.4881 137.351 29.9692L137.228 29.4439C136.093 24.8076 134.589 22.4894 132.714 22.4894C132.467 22.4894 132.237 22.5144 132.023 22.5645C131.81 22.5978 131.596 22.6479 131.382 22.7146Z" fill="white"/>
<path d="M160.045 13.2335C160.045 11.2989 159.963 10.0314 159.798 9.43104C159.65 8.83066 159.363 8.37203 158.935 8.05516C158.787 7.93842 158.557 7.78833 158.244 7.60487C157.077 6.85439 156.493 6.01219 156.493 5.07826C156.493 3.71071 157.48 2.64336 159.453 1.8762C161.426 1.10904 164.181 0.725465 167.716 0.725465C170.857 0.725465 173.085 1.00064 174.401 1.55099C175.733 2.08467 176.399 2.98525 176.399 4.25273C176.399 5.48685 175.667 6.52085 174.203 7.35471C173.94 7.50481 173.743 7.62155 173.611 7.70494C173.233 7.97178 172.954 9.10584 172.773 11.1071C172.608 13.1084 172.526 16.2021 172.526 20.3881C172.526 23.907 173.044 26.3836 174.08 27.8178C175.116 29.2521 176.851 29.9692 179.285 29.9692C180.715 29.9692 181.965 29.7107 183.034 29.1937C184.103 28.6767 184.876 27.9679 185.352 27.0673C185.714 26.3169 185.969 25.2078 186.117 23.7402C186.281 22.2559 186.364 19.5709 186.364 15.6851V14.109C186.364 11.4407 186.306 9.65619 186.191 8.75561C186.076 7.83836 185.879 7.22963 185.599 6.92944C185.467 6.77935 184.908 6.47081 183.922 6.00385C182.952 5.52021 182.466 4.86979 182.466 4.0526C182.466 3.0186 183.206 2.20975 184.686 1.62604C186.166 1.02566 188.222 0.725465 190.853 0.725465C193.106 0.725465 194.841 1.01732 196.057 1.60103C197.274 2.16806 197.883 2.98525 197.883 4.0526C197.883 5.08659 197.283 5.94548 196.082 6.62925C195.819 6.77935 195.622 6.89609 195.49 6.97947C194.734 7.46312 194.273 8.83066 194.109 11.0821C194.109 11.2656 194.101 11.424 194.084 11.5574C193.985 13.1918 193.895 15.5099 193.813 18.5119C193.648 24.0821 193.254 27.8512 192.629 29.8191C191.659 32.821 189.8 35.0892 187.054 36.6235C184.308 38.1411 180.723 38.8999 176.3 38.8999C171.301 38.8999 167.338 37.7242 164.411 35.3727C161.5 33.0212 160.045 29.8608 160.045 25.8916V13.2335Z" fill="white"/>
<path d="M214.583 16.3105C214.862 16.3938 215.117 16.4606 215.347 16.5106C215.594 16.5439 215.824 16.5606 216.038 16.5606C217.337 16.5606 218.274 16.152 218.85 15.3348C219.425 14.501 219.713 13.1001 219.713 11.1321C219.713 9.63117 219.425 8.52213 218.85 7.805C218.274 7.08788 217.386 6.72931 216.186 6.72931C215.462 6.72931 214.994 6.9628 214.78 7.42976C214.566 7.88005 214.459 9.11417 214.459 11.1321V13.1334C214.459 13.5504 214.467 14.0006 214.484 14.4843C214.5 14.9679 214.533 15.5767 214.583 16.3105ZM214.755 22.7146C214.755 22.9647 214.747 23.4901 214.731 24.2906C214.714 25.0744 214.706 25.7415 214.706 26.2919V27.8178C214.706 29.4522 214.78 30.5196 214.928 31.0199C215.076 31.5202 215.355 31.9121 215.767 32.1956C215.882 32.2623 216.046 32.3541 216.26 32.4708C217.477 33.2213 218.085 34.0969 218.085 35.0975C218.085 36.3316 217.378 37.2072 215.964 37.7242C214.566 38.2245 212.075 38.4747 208.49 38.4747C204.856 38.4747 202.266 38.1995 200.72 37.6491C199.175 37.0988 198.402 36.1982 198.402 34.9474C198.402 33.9301 199.092 33.0629 200.474 32.3457C200.687 32.229 200.86 32.1373 200.992 32.0706C201.386 31.8538 201.707 30.5863 201.954 28.2681C202.217 25.95 202.348 22.8813 202.348 19.0622C202.348 14.3092 202.282 11.1988 202.151 9.73124C202.019 8.26363 201.797 7.36305 201.485 7.02951C201.304 6.86273 200.951 6.64593 200.424 6.37909C199.076 5.69532 198.402 4.85311 198.402 3.85247C198.402 2.86851 198.961 2.12636 200.079 1.62604C201.197 1.12572 202.858 0.875561 205.062 0.875561C205.423 0.875561 206.163 0.8839 207.281 0.900577C208.416 0.917255 209.362 0.925593 210.118 0.925593C211.565 0.925593 213.382 0.892239 215.569 0.825529C217.773 0.75882 219.253 0.725465 220.009 0.725465C224.334 0.725465 227.647 1.55933 229.95 3.22707C232.252 4.87813 233.403 7.25465 233.403 10.3566C233.403 11.8242 233.107 13.1334 232.515 14.2842C231.939 15.4349 231.084 16.4022 229.95 17.186C229.703 17.3528 229.333 17.5613 228.84 17.8114C228.083 18.195 227.705 18.5452 227.705 18.8621C227.705 19.2457 228.198 19.5959 229.185 19.9128C229.908 20.1462 230.476 20.3631 230.887 20.5632C231.857 21.0468 232.704 21.889 233.427 23.0898C234.167 24.2739 234.677 25.6414 234.957 27.1924C235.039 27.6094 235.129 28.1764 235.228 28.8935C235.508 30.7947 235.886 31.8538 236.363 32.0706C236.527 32.1373 236.733 32.2207 236.979 32.3207C238.476 32.9044 239.224 33.6632 239.224 34.5972C239.224 35.848 238.451 36.857 236.905 37.6241C235.376 38.3746 233.337 38.7498 230.788 38.7498C227.795 38.7498 225.584 38.1661 224.153 36.9987C222.722 35.8313 221.58 33.4881 220.724 29.9692L220.601 29.4439C219.466 24.8076 217.962 22.4894 216.087 22.4894C215.841 22.4894 215.61 22.5144 215.397 22.5645C215.183 22.5978 214.969 22.6479 214.755 22.7146Z" fill="white"/>
<path d="M253.211 22.1392H261.252C260.265 19.721 259.418 17.8948 258.711 16.6607C258.004 15.4266 257.453 14.8095 257.059 14.8095C256.697 14.8095 256.245 15.3182 255.702 16.3355C255.176 17.3361 254.345 19.2707 253.211 22.1392ZM237.548 35.0975C237.548 33.8967 238.337 33.0295 239.916 32.4958C240.179 32.4124 240.392 32.3374 240.557 32.2707C241.659 31.8371 243.229 29.1854 245.268 24.3156C245.926 22.7312 246.452 21.4804 246.847 20.5632C247.209 19.7293 247.718 18.5452 248.376 17.0109C251.369 10.1065 253.046 5.52854 253.408 3.2771C253.638 1.99294 254.057 1.12572 254.666 0.675433C255.291 0.225144 256.319 0 257.749 0C259.361 0 260.676 0.216806 261.696 0.650417C262.732 1.08403 263.677 1.80949 264.532 2.82681C265.486 3.96087 266.596 5.7787 267.862 8.28031C269.145 10.7652 270.913 14.601 273.165 19.7877C273.741 21.0885 274.465 22.8313 275.336 25.016C276.915 28.9185 278.074 31.1533 278.814 31.7203C278.945 31.8037 279.217 31.9205 279.628 32.0706C281.141 32.6209 281.897 33.4298 281.897 34.4971C281.897 35.848 281.059 36.8319 279.381 37.449C277.72 38.0661 275.04 38.3746 271.34 38.3746C267.163 38.3746 264.261 38.1244 262.633 37.6241C261.005 37.1238 260.191 36.2649 260.191 35.0475C260.191 34.5138 260.323 34.0468 260.586 33.6466C260.865 33.2463 261.252 32.9461 261.745 32.746C262.452 32.4625 262.904 32.2123 263.102 31.9955C263.315 31.7787 263.422 31.5035 263.422 31.17C263.422 30.4195 262.822 29.8858 261.622 29.569C260.421 29.2354 258.44 29.0686 255.677 29.0686C253.474 29.0686 251.969 29.2271 251.163 29.5439C250.374 29.8608 249.979 30.4195 249.979 31.22C249.979 31.6536 250.094 31.9872 250.325 32.2207C250.555 32.4375 251.032 32.6292 251.755 32.796C252.249 32.8961 252.635 33.1462 252.915 33.5465C253.211 33.9301 253.359 34.4137 253.359 34.9974C253.359 36.1815 252.701 37.0487 251.385 37.5991C250.07 38.1495 248.023 38.4246 245.243 38.4246C242.678 38.4246 240.754 38.1495 239.472 37.5991C238.189 37.0487 237.548 36.2149 237.548 35.0975Z" fill="white"/>
<path d="M302.84 38.0744H285.203C284.217 38.0744 283.436 37.7909 282.86 37.2239C282.301 36.6402 282.022 35.848 282.022 34.8473C282.022 33.8467 282.613 32.9711 283.797 32.2207C284.324 31.8704 284.694 31.5869 284.907 31.3701C285.368 30.8531 285.689 30.0276 285.869 28.8935C286.067 27.7595 286.165 25.3579 286.165 21.6889V15.0597C286.165 12.2579 286.1 10.34 285.968 9.30596C285.853 8.27197 285.647 7.62989 285.351 7.37973C285.187 7.26299 284.85 7.12123 284.34 6.95446C282.86 6.48749 282.12 5.62027 282.12 4.35279C282.12 3.10199 283.057 2.1347 284.932 1.45093C286.823 0.767158 289.504 0.425273 292.973 0.425273C296.394 0.425273 298.975 0.733804 300.718 1.35087C302.461 1.96793 303.333 2.88518 303.333 4.10263C303.333 5.22001 302.659 6.08723 301.31 6.7043C300.932 6.87107 300.644 7.01283 300.447 7.12957C300.003 7.41308 299.699 7.67992 299.534 7.93008C299.386 8.16357 299.288 8.53047 299.238 9.03079C299.156 9.86466 299.09 11.0654 299.041 12.6331C299.008 14.2008 298.992 16.4105 298.992 19.2623V26.592C298.992 28.8435 299.222 30.2277 299.682 30.7447C300.159 31.2617 301.146 31.5202 302.642 31.5202C304.5 31.5202 305.906 31.2617 306.86 30.7447C307.814 30.2277 308.529 29.3521 309.006 28.118C309.088 27.9012 309.195 27.5843 309.327 27.1674C309.853 25.6331 310.585 24.8659 311.522 24.8659C312.509 24.8659 313.331 25.2662 313.989 26.0667C314.663 26.8505 315 27.8512 315 29.0686C315 30.136 314.745 31.4618 314.235 33.0462C313.726 34.6139 313.125 35.898 312.435 36.8987C311.991 37.5324 311.514 38.0077 311.004 38.3246C310.494 38.6414 309.96 38.7999 309.401 38.7999C309.351 38.7999 309.179 38.7665 308.883 38.6998C307.09 38.2829 305.076 38.0744 302.84 38.0744Z" fill="white"/>
</g>
<defs>
<filter id="filter0_i_510_405" x="0" y="0" width="315" height="43" filterUnits="userSpaceOnUse" color-interpolation-filters="sRGB">
<feFlood flood-opacity="0" result="BackgroundImageFix"/>
<feBlend mode="normal" in="SourceGraphic" in2="BackgroundImageFix" result="shape"/>
<feColorMatrix in="SourceAlpha" type="matrix" values="0 0 0 0 0 0 0 0 0 0 0 0 0 0 0 0 0 0 127 0" result="hardAlpha"/>
<feOffset dy="4"/>
<feGaussianBlur stdDeviation="2"/>
<feComposite in2="hardAlpha" operator="arithmetic" k2="-1" k3="1"/>
<feColorMatrix type="matrix" values="0 0 0 0 0 0 0 0 0 0 0 0 0 0 0 0 0 0 0.25 0"/>
<feBlend mode="normal" in2="shape" result="effect1_innerShadow_510_405"/>
</filter>
</defs>
</svg>
